<svg width="24" height="26" viewBox="0 0 24 26" fill="currentColor" stroke="currentColor" xmlns="http://www.w3.org/2000/svg">
<path d="M13.6719 2.90296L4.13445 13.026C3.77433 13.4104 3.42583 14.1676 3.35613 14.6918L2.9263 18.4661C2.77529 19.829 3.7511 20.761 5.09864 20.528L8.83925 19.8873C9.36201 19.7941 10.0939 19.4097 10.454 19.0136L19.9914 8.89058C21.641 7.14322 22.3845 5.15123 19.8172 2.71658C17.2615 0.305219 15.3215 1.1556 13.6719 2.90296Z" stroke-width="2" stroke-miterlimit="10" stroke-linecap="round" stroke-linejoin="round"/>
<path d="M12.0817 4.58984C12.5812 7.80499 15.1834 10.2629 18.4128 10.5891M1.75366 24.3352H22.6639" stroke-width="2" stroke-miterlimit="10" stroke-linecap="round" stroke-linejoin="round"/>
<path d="M13.6716 2.90296L4.13421 13.026C3.77409 13.4104 3.42558 14.1676 3.35588 14.6918L2.92606 18.4661C2.77504 19.829 3.75085 20.761 5.0984 20.528L8.83901 19.8873C9.36176 19.7941 10.0937 19.4097 10.4538 19.0136L19.9912 8.89058C21.6408 7.14322 22.3842 5.15123 19.8169 2.71658C17.2612 0.305219 15.3212 1.1556 13.6716 2.90296Z"/>
<path d="M12.0815 4.58984C12.5811 7.80499 15.1832 10.2629 18.4127 10.5891" stroke="white" stroke-width="2" stroke-miterlimit="10" stroke-linecap="round" stroke-linejoin="round"/>
</svg>
