<svg width="21" height="21" viewBox="0 0 21 21" fill="currentColor" xmlns="http://www.w3.org/2000/svg">
<path d="M14.6665 2.91406H6.33317C3.83317 2.91406 2.1665 4.58073 2.1665 7.08073V12.0807C2.1665 14.5807 3.83317 16.2474 6.33317 16.2474V18.0224C6.33317 18.6891 7.07484 19.0891 7.62484 18.7141L11.3332 16.2474H14.6665C17.1665 16.2474 18.8332 14.5807 18.8332 12.0807V7.08073C18.8332 4.58073 17.1665 2.91406 14.6665 2.91406ZM10.4998 13.0557C10.1498 13.0557 9.87484 12.7724 9.87484 12.4307C9.87484 12.0891 10.1498 11.8057 10.4998 11.8057C10.8498 11.8057 11.1248 12.0891 11.1248 12.4307C11.1248 12.7724 10.8498 13.0557 10.4998 13.0557ZM11.5498 9.5974C11.2248 9.81407 11.1248 9.95574 11.1248 10.1891V10.3641C11.1248 10.7057 10.8415 10.9891 10.4998 10.9891C10.1582 10.9891 9.87484 10.7057 9.87484 10.3641V10.1891C9.87484 9.2224 10.5832 8.7474 10.8498 8.56406C11.1582 8.35573 11.2582 8.21406 11.2582 7.9974C11.2582 7.58073 10.9165 7.23906 10.4998 7.23906C10.0832 7.23906 9.7415 7.58073 9.7415 7.9974C9.7415 8.33906 9.45817 8.6224 9.1165 8.6224C8.77484 8.6224 8.4915 8.33906 8.4915 7.9974C8.4915 6.88906 9.3915 5.98906 10.4998 5.98906C11.6082 5.98906 12.5082 6.88906 12.5082 7.9974C12.5082 8.9474 11.8082 9.4224 11.5498 9.5974Z"/>
</svg>
