<svg width="21" height="21" viewBox="0 0 21 21" fill="currentColor" xmlns="http://www.w3.org/2000/svg">
<path d="M7.0654 10.9483C7.0654 10.6066 7.34873 10.3233 7.6904 10.3233H12.2571V3.27331C12.2487 2.87331 11.9321 2.55664 11.5321 2.55664C6.62373 2.55664 3.19873 5.98164 3.19873 10.89C3.19873 15.7983 6.62373 19.2233 11.5321 19.2233C11.9237 19.2233 12.2487 18.9066 12.2487 18.5066V11.565H7.6904C7.3404 11.5733 7.0654 11.29 7.0654 10.9483Z"/>
<path d="M17.6181 10.5065L15.2515 8.13145C15.0098 7.88978 14.6098 7.88978 14.3681 8.13145C14.1265 8.37311 14.1265 8.77311 14.3681 9.01478L15.6681 10.3148H12.2515V11.5648H15.6598L14.3598 12.8648C14.1181 13.1065 14.1181 13.5065 14.3598 13.7481C14.4848 13.8731 14.6431 13.9315 14.8015 13.9315C14.9598 13.9315 15.1181 13.8731 15.2431 13.7481L17.6098 11.3731C17.8598 11.1398 17.8598 10.7481 17.6181 10.5065Z"/>
</svg>
