<svg width="43" height="32" viewBox="0 0 43 32" fill="none" xmlns="http://www.w3.org/2000/svg">
<path d="M26.6635 2.57812H15.2969V21.5354H26.6635V2.57812Z" fill="#FF5A00"/>
<path d="M16.0579 12.0581C16.0579 8.20651 18.0084 4.7881 21.0014 2.57941C18.7987 0.971669 16.0201 0 12.9893 0C5.80943 0 0 5.39296 0 12.0581C0 18.7232 5.80943 24.1161 12.9893 24.1161C16.0201 24.1161 18.7987 23.1445 21.0014 21.5367C18.0042 19.3592 16.0579 15.9096 16.0579 12.0581Z" fill="#EB001B"/>
<path d="M42.0014 12.0581C42.0014 18.7232 36.192 24.1161 29.0121 24.1161C25.9813 24.1161 23.2027 23.1445 21 21.5367C24.0308 19.3241 25.9435 15.9096 25.9435 12.0581C25.9435 8.20651 23.993 4.7881 21 2.57941C23.1985 0.971669 25.9771 0 29.0079 0C36.192 0 42.0014 5.42808 42.0014 12.0581Z" fill="#F79E1B"/>
<path d="M7.20298 31.3406V29.2289C7.20298 28.421 6.69854 27.8921 5.83259 27.8921C5.39961 27.8921 4.92881 28.0315 4.60512 28.4908C4.35291 28.1053 3.99139 27.8921 3.44912 27.8921C3.08761 27.8921 2.7261 27.9987 2.44025 28.3841V27.9618H1.68359V31.3406H2.44025V29.4749C2.44025 28.8762 2.76393 28.5933 3.26837 28.5933C3.7728 28.5933 4.02502 28.909 4.02502 29.4749V31.3406H4.78168V29.4749C4.78168 28.8762 5.14319 28.5933 5.60979 28.5933C6.11423 28.5933 6.36645 28.909 6.36645 29.4749V31.3406H7.20298ZM18.4267 27.9618H17.1992V26.9407H16.4426V27.9618H15.7574V28.6302H16.4426V30.1802C16.4426 30.9552 16.7663 31.4103 17.6322 31.4103C17.9559 31.4103 18.3174 31.3037 18.5696 31.1643L18.351 30.5287C18.1324 30.6681 17.8802 30.7051 17.6995 30.7051C17.338 30.7051 17.195 30.4918 17.195 30.1433V28.6302H18.4225V27.9618H18.4267ZM24.8499 27.888C24.4169 27.888 24.1268 28.1012 23.9461 28.38V27.9577H23.1894V31.3365H23.9461V29.4339C23.9461 28.8721 24.1983 28.5523 24.6691 28.5523C24.812 28.5523 24.9928 28.5892 25.1399 28.622L25.3585 27.9167C25.2072 27.888 24.9928 27.888 24.8499 27.888ZM15.1437 28.2406C14.7821 27.9946 14.2777 27.888 13.7354 27.888C12.8695 27.888 12.2936 28.3103 12.2936 28.9787C12.2936 29.5405 12.7266 29.8603 13.4832 29.9629L13.8447 29.9998C14.2399 30.0695 14.4585 30.1761 14.4585 30.3524C14.4585 30.5984 14.1684 30.7748 13.664 30.7748C13.1595 30.7748 12.7602 30.5984 12.508 30.4221L12.1465 30.9839C12.5416 31.2668 13.0839 31.4062 13.6261 31.4062C14.635 31.4062 15.2151 30.947 15.2151 30.3155C15.2151 29.7168 14.7443 29.4011 14.0255 29.2945L13.664 29.2576C13.3403 29.2207 13.0881 29.1509 13.0881 28.9418C13.0881 28.6958 13.3403 28.5564 13.7396 28.5564C14.1726 28.5564 14.6056 28.7327 14.8242 28.8393L15.1437 28.2406ZM35.2749 27.888C34.8419 27.888 34.5519 28.1012 34.3711 28.38V27.9577H33.6145V31.3365H34.3711V29.4339C34.3711 28.8721 34.6233 28.5523 35.0941 28.5523C35.2371 28.5523 35.4178 28.5892 35.5649 28.622L35.7835 27.9249C35.6364 27.888 35.422 27.888 35.2749 27.888ZM25.6065 29.6512C25.6065 30.6722 26.3295 31.4103 27.4477 31.4103C27.9522 31.4103 28.3137 31.3037 28.6752 31.0249L28.3137 30.4262C28.0236 30.6394 27.7378 30.742 27.4099 30.742C26.7962 30.742 26.3632 30.3196 26.3632 29.6512C26.3632 29.0156 26.7962 28.5933 27.4099 28.5605C27.7336 28.5605 28.0236 28.6671 28.3137 28.8762L28.6752 28.2775C28.3137 27.9946 27.9522 27.8921 27.4477 27.8921C26.3295 27.888 25.6065 28.6302 25.6065 29.6512ZM32.6056 29.6512V27.9618H31.8489V28.3841C31.5967 28.0684 31.2352 27.8921 30.7644 27.8921C29.7891 27.8921 29.0325 28.6302 29.0325 29.6512C29.0325 30.6722 29.7891 31.4103 30.7644 31.4103C31.2688 31.4103 31.6303 31.234 31.8489 30.9183V31.3406H32.6056V29.6512ZM29.827 29.6512C29.827 29.0525 30.2221 28.5605 30.8737 28.5605C31.4874 28.5605 31.9204 29.0197 31.9204 29.6512C31.9204 30.2499 31.4874 30.742 30.8737 30.742C30.2263 30.7051 29.827 30.2458 29.827 29.6512ZM20.7723 27.888C19.7635 27.888 19.0404 28.5933 19.0404 29.6471C19.0404 30.7051 19.7635 31.4062 20.8102 31.4062C21.3146 31.4062 21.819 31.2668 22.2184 30.947L21.8569 30.418C21.5668 30.6312 21.2053 30.7707 20.848 30.7707C20.3772 30.7707 19.9106 30.5574 19.8013 29.9629H22.3613C22.3613 29.8562 22.3613 29.7865 22.3613 29.6799C22.3949 28.5933 21.7434 27.888 20.7723 27.888ZM20.7723 28.5236C21.2431 28.5236 21.5668 28.8065 21.6383 29.3314H19.8349C19.9064 28.8762 20.2301 28.5236 20.7723 28.5236ZM39.571 29.6512V26.625H38.8144V28.3841C38.5621 28.0684 38.2006 27.8921 37.7298 27.8921C36.7546 27.8921 35.9979 28.6302 35.9979 29.6512C35.9979 30.6722 36.7546 31.4103 37.7298 31.4103C38.2343 31.4103 38.5958 31.234 38.8144 30.9183V31.3406H39.571V29.6512ZM36.7924 29.6512C36.7924 29.0525 37.1876 28.5605 37.8391 28.5605C38.4529 28.5605 38.8858 29.0197 38.8858 29.6512C38.8858 30.2499 38.4529 30.742 37.8391 30.742C37.1876 30.7051 36.7924 30.2458 36.7924 29.6512ZM11.4613 29.6512V27.9618H10.7046V28.3841C10.4524 28.0684 10.0909 27.8921 9.62007 27.8921C8.64482 27.8921 7.88817 28.6302 7.88817 29.6512C7.88817 30.6722 8.64482 31.4103 9.62007 31.4103C10.1245 31.4103 10.486 31.234 10.7046 30.9183V31.3406H11.4613V29.6512ZM8.64903 29.6512C8.64903 29.0525 9.04417 28.5605 9.69573 28.5605C10.3095 28.5605 10.7424 29.0197 10.7424 29.6512C10.7424 30.2499 10.3095 30.742 9.69573 30.742C9.04417 30.7051 8.64903 30.2458 8.64903 29.6512Z" fill="#1B212D"/>
</svg>
