<svg width="25" height="25" viewBox="0 0 25 25" fill="none" stroke="currentColor" xmlns="http://www.w3.org/2000/svg">
<path d="M9.7998 22.4238H15.7998C20.7998 22.4238 22.7998 20.4238 22.7998 15.4238V9.42383C22.7998 4.42383 20.7998 2.42383 15.7998 2.42383H9.7998C4.7998 2.42383 2.7998 4.42383 2.7998 9.42383V15.4238C2.7998 20.4238 4.7998 22.4238 9.7998 22.4238Z" stroke-width="1.5" stroke-linecap="round" stroke-linejoin="round"/>
<path d="M8.7998 19.4238H16.7998C18.7998 19.4238 19.7998 18.4238 19.7998 16.4238V8.42383C19.7998 6.42383 18.7998 5.42383 16.7998 5.42383H8.7998C6.7998 5.42383 5.7998 6.42383 5.7998 8.42383V16.4238C5.7998 18.4238 6.7998 19.4238 8.7998 19.4238Z" stroke-width="1.5" stroke-linecap="round" stroke-linejoin="round"/>
<path d="M5.7998 9.92383H8.2798C9.6598 9.92383 10.7798 11.0438 10.7798 12.4238C10.7798 13.8038 9.6598 14.9238 8.2798 14.9238H5.7998" stroke-width="1.5" stroke-linecap="round" stroke-linejoin="round"/>
<path d="M19.7998 10.4141H16.7998" stroke-width="1.5" stroke-linecap="round" stroke-linejoin="round"/>
<path d="M19.7998 14.4238H16.7998" stroke-width="1.5" stroke-linecap="round" stroke-linejoin="round"/>
<path d="M8 12.4238H8.1" stroke-width="2" stroke-miterlimit="10" stroke-linecap="round" stroke-linejoin="round"/>
</svg>
