<svg width="25" height="25" viewBox="0 0 25 25" fill="currentColor" xmlns="http://www.w3.org/2000/svg">
<path d="M24.8744 1.42176C24.8732 1.40425 24.872 1.38674 24.8699 1.36945C24.8678 1.3518 24.8648 1.33429 24.8619 1.31678C24.8588 1.29817 24.8557 1.27955 24.8517 1.26123C24.848 1.24498 24.8435 1.22902 24.8392 1.21292C24.8342 1.19423 24.8293 1.17546 24.8233 1.15722C24.8181 1.14111 24.8118 1.1253 24.8059 1.10942C24.7992 1.09198 24.7929 1.07448 24.7854 1.05749C24.7782 1.04086 24.7699 1.02469 24.7618 1.00836C24.754 0.992773 24.7465 0.977037 24.738 0.961893C24.7289 0.945419 24.7186 0.929537 24.7086 0.913432C24.6996 0.898953 24.6907 0.8844 24.6809 0.870364C24.6705 0.855294 24.6591 0.840814 24.6479 0.826187C24.6368 0.811708 24.6256 0.797303 24.6139 0.783489C24.6029 0.770487 24.591 0.758002 24.5793 0.745444C24.5656 0.730817 24.5518 0.716411 24.5373 0.702449C24.5325 0.697795 24.5282 0.692624 24.5233 0.688044C24.516 0.681321 24.5082 0.675707 24.5008 0.66928C24.4856 0.655909 24.4703 0.642981 24.4544 0.630422C24.4409 0.619785 24.4272 0.60959 24.4132 0.599691C24.398 0.588758 24.3824 0.578194 24.3666 0.568073C24.3514 0.558322 24.3361 0.549014 24.3205 0.540075C24.305 0.531136 24.2892 0.522715 24.2732 0.514515C24.2569 0.506167 24.2406 0.498189 24.224 0.490801C24.2076 0.483488 24.1912 0.476691 24.1746 0.47019C24.1577 0.463542 24.1407 0.457263 24.1236 0.4515C24.1066 0.445812 24.0894 0.440567 24.0721 0.435691C24.0546 0.430742 24.0369 0.426162 24.0192 0.422099C24.002 0.41811 23.9846 0.414638 23.9671 0.411461C23.9484 0.408063 23.9296 0.405256 23.9107 0.402818C23.894 0.400675 23.8772 0.398902 23.8602 0.397499C23.84 0.395874 23.8197 0.394913 23.7994 0.394396C23.7897 0.394322 23.7801 0.393066 23.7703 0.393066H19.3379C18.7259 0.393066 18.2298 0.889202 18.2298 1.50117C18.2298 2.11314 18.7259 2.60928 19.3379 2.60928H21.2341L14.5054 9.8763L11.6259 6.99685C11.413 6.78387 11.1233 6.66826 10.8213 6.67247C10.5202 6.67823 10.2344 6.80626 10.0296 7.02714L0.795383 16.9903C0.379401 17.4392 0.405995 18.1402 0.854851 18.5563C1.0682 18.754 1.33835 18.8517 1.60785 18.8517C1.90556 18.8517 2.20253 18.7324 2.4209 18.4969L10.8727 9.37787L13.7525 12.2577C13.9656 12.4707 14.2583 12.5889 14.5574 12.5821C14.8586 12.5763 15.1445 12.4481 15.3492 12.227L22.6622 4.32891V5.93359C22.6622 6.54556 23.1583 7.04169 23.7703 7.04169C24.3823 7.04169 24.8784 6.54556 24.8784 5.93359V1.50117C24.8784 1.49423 24.8775 1.48758 24.8774 1.48071C24.877 1.46106 24.8758 1.44141 24.8744 1.42176Z"/>
<path d="M23.7702 22.5552H1.6081C0.996135 22.5552 0.5 23.0513 0.5 23.6633C0.5 24.2752 0.996135 24.7714 1.6081 24.7714H23.7702C24.3822 24.7714 24.8783 24.2752 24.8783 23.6633C24.8783 23.0513 24.3822 22.5552 23.7702 22.5552Z"/>
</svg>
