<svg width="24" height="25" viewBox="0 0 24 25" fill="none" xmlns="http://www.w3.org/2000/svg">
<path d="M7.64866 3.51016L7.64818 3.51033C7.47746 3.57116 7.35649 3.66012 7.28047 3.80336C7.20597 3.94374 7.178 4.13029 7.178 4.37907V4.68194L6.81983 4.69509C6.81968 4.69509 6.81954 4.6951 6.8194 4.6951C6.47957 4.7025 6.38015 4.71624 6.27552 4.79471C6.09995 4.92638 5.99233 5.11434 5.96458 5.34027L5.96447 5.34122L5.96448 5.34122C5.96277 5.35776 5.96145 5.42878 5.96021 5.54298C5.95895 5.65922 5.95776 5.82401 5.95668 6.0319C5.95452 6.44771 5.95277 7.03623 5.95161 7.75426C5.94927 9.19033 5.94927 11.1446 5.95301 13.2716C5.95861 16.8811 5.96234 18.8159 5.97215 19.8619C5.97705 20.3847 5.98347 20.6863 5.99246 20.8641C5.99695 20.9529 6.00213 21.0123 6.00836 21.0535C6.01455 21.0944 6.02226 21.1212 6.03392 21.1423L6.03404 21.1425L6.03404 21.1425C6.12987 21.3142 6.31603 21.4651 6.50507 21.5174L6.5054 21.5175L6.5054 21.5175C6.51673 21.5206 6.53406 21.5223 6.55238 21.5238C6.57242 21.5253 6.59884 21.5268 6.63145 21.5281C6.69675 21.5308 6.78836 21.5333 6.90636 21.5354C7.14246 21.5398 7.48538 21.543 7.93734 21.5454C8.84132 21.55 10.1822 21.551 11.9786 21.5491L11.9787 21.5491C12.3894 21.5483 12.7693 21.5477 13.1208 21.5471C15.3127 21.5436 16.4 21.5419 16.9558 21.514C17.1172 21.5059 17.2353 21.4956 17.3233 21.4821C17.4108 21.4687 17.4718 21.4517 17.5169 21.4286C17.5642 21.4045 17.5916 21.3751 17.6141 21.3428C17.6222 21.3313 17.63 21.3188 17.6375 21.3069C17.6396 21.3034 17.6417 21.3 17.6438 21.2967C17.6535 21.2815 17.6636 21.266 17.6762 21.2497C17.6762 21.2496 17.6763 21.2496 17.6763 21.2495L17.6367 21.219C17.7338 21.0957 17.7413 21.0472 17.76 20.6887L7.64866 3.51016ZM7.64866 3.51016C7.66195 3.50558 7.6826 3.50295 7.70328 3.50089C7.72624 3.49859 7.75632 3.49641 7.79273 3.49434C7.86565 3.49019 7.96579 3.48634 8.089 3.48279C8.33551 3.47568 8.67571 3.46971 9.07802 3.46489C9.88271 3.45526 10.9367 3.45024 11.9884 3.45001C13.0401 3.44978 14.0896 3.45433 14.8854 3.46384C15.2833 3.4686 15.618 3.4746 15.8579 3.48187C15.9778 3.48551 16.0744 3.48947 16.1436 3.49378C16.1781 3.49593 16.2063 3.49821 16.2275 3.50065C16.238 3.50186 16.2474 3.50319 16.2553 3.50471C16.2613 3.50586 16.2725 3.50815 16.2823 3.51341C16.2904 3.51773 16.2993 3.52459 16.3069 3.53065C16.3156 3.53757 16.3261 3.54652 16.3383 3.5572C16.3628 3.57861 16.3952 3.60804 16.4343 3.64442C16.5125 3.71723 16.6189 3.8188 16.7457 3.94168C16.9995 4.18747 17.3358 4.51912 17.6945 4.87778L17.6946 4.87789L18.9905 6.18131L19.0051 6.19593V6.21656V13.0325V19.8521V19.8678L18.9961 19.8807L18.9107 20.0032C18.9106 20.0033 18.9105 20.0035 18.9104 20.0036C18.8286 20.1253 18.7584 20.2042 18.647 20.2519C18.5395 20.298 18.398 20.3129 18.1808 20.324L18.1806 20.3241L17.8264 20.3406L7.64866 3.51016ZM6.0777 21.1182C6.16734 21.2787 6.34287 21.4207 6.5184 21.4692L6.0777 21.1182ZM6.0777 21.1182C6.01795 21.0098 6.01421 20.4907 6.00301 13.2715C5.99554 9.01761 6.00301 5.45468 6.01421 5.34637L6.0777 21.1182ZM16.1281 6.61991C16.0541 6.58381 15.9899 6.55023 15.9399 6.49916C15.8882 6.44645 15.855 6.37904 15.8326 6.28141C15.8106 6.18497 15.7983 6.05565 15.7905 5.87614C15.7826 5.69613 15.7791 5.46262 15.7754 5.15661L15.7754 5.15651L16.1281 6.61991ZM16.1281 6.61991C16.1703 6.64099 16.2084 6.65825 16.2571 6.67158C16.3054 6.68481 16.3622 6.69367 16.4423 6.7001C16.6013 6.71287 16.8602 6.71661 17.341 6.72219C17.341 6.72219 17.341 6.7222 17.3411 6.7222L18.3075 6.73641V13.1818V19.6265H13.099H7.88658L7.86435 13.3908C7.86435 13.3908 7.86435 13.3908 7.86435 13.3908C7.85502 10.3601 7.85502 8.07466 7.86482 6.53433C7.86972 5.76412 7.87707 5.18047 7.88692 4.7832C7.89185 4.58449 7.89739 4.43285 7.90353 4.32796C7.90661 4.27543 7.9098 4.23528 7.91306 4.20708C7.91393 4.19948 7.91479 4.19297 7.91561 4.18748L16.1284 6.62004C16.1283 6.62 16.1282 6.61995 16.1281 6.61991ZM17.6792 6.00784C17.7274 6.00784 17.7693 6.0076 17.8036 6.00714C17.7682 5.9692 17.7201 5.91861 17.6618 5.85817C17.5281 5.7193 17.3416 5.52906 17.1345 5.32197L16.4654 4.65291V5.28661V5.99178L17.1557 6.00224L17.1559 6.00224C17.3573 6.00597 17.5428 6.00784 17.6792 6.00784ZM7.18369 19.8005L7.178 19.7897V19.7774V12.5544V5.38516H6.93296C6.85174 5.38516 6.77756 5.38794 6.72329 5.39246C6.7018 5.39425 6.68414 5.39627 6.67074 5.39835C6.67059 5.40278 6.67045 5.40767 6.67031 5.41303C6.66948 5.44374 6.6687 5.48847 6.66797 5.54646C6.6665 5.66236 6.66523 5.83041 6.66413 6.04326C6.66194 6.4689 6.66048 7.07323 6.65967 7.79676C6.65803 9.2438 6.65897 11.1674 6.66177 13.0912C6.66457 15.015 6.66924 16.9391 6.67507 18.387C6.67799 19.111 6.6812 19.716 6.68461 20.1423C6.68632 20.3555 6.68808 20.5239 6.68987 20.6402C6.69077 20.6984 6.69167 20.7434 6.69258 20.7743C6.69304 20.7898 6.69348 20.8015 6.69391 20.8094L6.69429 20.815L6.71026 20.859L11.9113 20.8515L11.9113 20.8515L17.0955 20.8404L17.105 20.5785L17.105 20.5785L17.1143 20.3241H12.4305H7.69484H7.6812L7.66944 20.3172L7.52426 20.2316C7.42146 20.1738 7.32969 20.0731 7.27019 19.966L7.27018 19.966L7.26959 19.9649L7.18369 19.8005Z" fill="currentColor" stroke="currentColor" stroke-width="0.1"/>
<path d="M10.2627 8.78975C10.2608 8.47898 10.272 8.26347 10.3166 8.05995C10.3613 7.85612 10.439 7.66699 10.5666 7.40806L10.5666 7.40803C10.7112 7.11519 10.8041 6.98754 11.0541 6.73758C11.4758 6.31211 11.9444 6.06445 12.5297 5.95803L12.5302 5.95794C12.6777 5.93271 12.9549 5.92831 13.2254 5.93859C13.4955 5.94885 13.7686 5.97412 13.9072 6.01121L13.9074 6.01125C14.2312 6.09888 14.7043 6.33723 14.9564 6.53965C15.5711 7.03224 15.9423 7.86909 15.9461 8.75578V8.75599C15.9461 9.92655 15.3921 10.8794 14.4388 11.337L14.4388 11.337C13.972 11.5609 13.632 11.6332 13.0724 11.6295M10.2627 8.78975C10.2627 9.0914 10.2758 9.30651 10.3179 9.50537C10.3602 9.7047 10.4312 9.88527 10.5441 10.1185L10.5441 10.1186C11.0163 11.0935 11.9124 11.6256 13.0724 11.6295M10.2627 8.78975C10.2627 8.7897 10.2627 8.78965 10.2627 8.7896H10.3127L10.2627 8.7899C10.2627 8.78985 10.2627 8.7898 10.2627 8.78975ZM13.0724 11.6295C13.0724 11.6295 13.0724 11.6294 13.0723 11.6294L13.0727 11.5795L13.0725 11.6295C13.0725 11.6295 13.0724 11.6295 13.0724 11.6295ZM10.9065 8.34144C10.8356 8.67756 10.8356 8.85683 10.9103 9.21163C11.1306 10.3059 12.1315 11.0715 13.237 11.0006L10.9065 8.34144ZM10.9065 8.34144C11.1007 7.41522 11.8663 6.69815 12.8112 6.5525C13.0353 6.51888 13.5096 6.57117 13.7935 6.6608M10.9065 8.34144L15.2575 8.23313C15.067 7.48618 14.5105 6.88862 13.7935 6.6608M13.7935 6.6608L13.7784 6.70848C13.6406 6.66496 13.4545 6.62998 13.2745 6.61013C13.0937 6.59021 12.9243 6.58611 12.8187 6.60193C11.8941 6.74451 11.1453 7.44628 10.9555 8.3517L10.9554 8.35176C10.9203 8.5181 10.9033 8.64311 10.9038 8.76935C10.9042 8.8957 10.9222 9.02547 10.9592 9.20133L10.9592 9.20133L10.9593 9.20176C11.1747 10.2716 12.1533 11.02 13.2338 10.9507C13.7993 10.9142 14.2807 10.6812 14.6871 10.2529C15.2057 9.7051 15.3952 8.97208 15.209 8.24554L15.209 8.24548C15.0227 7.51477 14.4785 6.9309 13.7783 6.70846L13.7935 6.6608Z" fill="currentColor" stroke="currentColor" stroke-width="0.1"/>
<path d="M12.6351 7.56018L12.6351 7.56017L12.95 7.07922L12.9314 7.0328C12.9315 7.03277 12.9315 7.03275 12.9316 7.03273C13.1652 6.93941 13.4407 7.10259 13.4407 7.35186C13.4407 7.37869 13.4413 7.39428 13.4432 7.40454C13.4435 7.40622 13.4438 7.4075 13.444 7.40845C13.4464 7.40922 13.4511 7.41044 13.4596 7.41145C13.4759 7.41338 13.4987 7.4139 13.5326 7.4139C13.6705 7.4139 13.7896 7.46749 13.8638 7.55418C13.9386 7.64164 13.9651 7.76058 13.9193 7.88098C13.9035 7.92433 13.8852 7.96275 13.8591 7.9948C13.8323 8.02776 13.7991 8.05186 13.7569 8.06903C13.6766 8.10168 13.5613 8.10961 13.3912 8.11145V8.11146H13.3907C13.2136 8.11146 13.1013 8.1258 13.0344 8.15417C13.0022 8.16783 12.9836 8.18354 12.9725 8.1998C12.9616 8.2159 12.9552 8.23698 12.9552 8.26687C12.9552 8.31565 12.9706 8.34846 13.0008 8.37371C13.0336 8.40123 13.0886 8.42351 13.1747 8.43788C13.4048 8.47495 13.5949 8.57499 13.7278 8.72428C13.8607 8.87377 13.9337 9.06982 13.9337 9.29392C13.9337 9.61594 13.7763 9.89993 13.5182 10.033L13.4953 9.98858L13.5185 10.0329C13.4827 10.0516 13.4655 10.067 13.456 10.0823C13.4466 10.0973 13.4407 10.1184 13.4407 10.1566C13.4407 10.3911 13.3067 10.541 13.145 10.5633C12.9821 10.5858 12.8181 10.4753 12.7669 10.2465C12.7574 10.2076 12.7508 10.1817 12.744 10.1629C12.7373 10.1442 12.7326 10.1391 12.7306 10.1374C12.7291 10.1362 12.7246 10.1329 12.7078 10.1308C12.6902 10.1285 12.6661 10.1282 12.6288 10.1282C12.4269 10.1282 12.2576 9.99799 12.2576 9.80931C12.2576 9.74232 12.2673 9.68225 12.2924 9.63055C12.318 9.57788 12.3579 9.53731 12.4124 9.50735C12.5172 9.44961 12.6777 9.43066 12.9014 9.43066C12.9794 9.43066 13.0401 9.42878 13.0875 9.42376C13.1353 9.41868 13.1657 9.41074 13.1853 9.40092C13.203 9.3921 13.212 9.38184 13.2179 9.36804C13.2247 9.35198 13.2286 9.32807 13.2286 9.29018C13.2286 9.20594 13.1399 9.11983 13.0172 9.11985L13.016 9.11982C12.9303 9.11768 12.8271 9.0821 12.7309 9.03087C12.6339 8.97919 12.5383 8.90858 12.4683 8.83059L12.4683 8.8306L12.4679 8.83012C12.1347 8.44928 12.2131 7.8349 12.6351 7.56018Z" fill="currentColor" stroke="currentColor" stroke-width="0.1"/>
<path d="M16.6168 12.2856C16.755 12.3939 16.755 12.618 16.6168 12.7263V12.2856ZM16.6168 12.2856C16.516 12.2071 16.501 12.2071 13.1024 12.2071M16.6168 12.2856L13.1024 12.2071M13.1024 12.2071H9.68886H13.1024ZM9.68886 12.8547H9.66755L9.65279 12.8393L9.56403 12.7469C9.49545 12.682 9.45586 12.5911 9.45586 12.5059C9.45586 12.4207 9.49545 12.3298 9.56403 12.265L9.65279 12.1725L9.66755 12.1571H9.68886H13.1024H13.1043C14.8019 12.1571 15.6557 12.1571 16.0974 12.1669C16.3176 12.1718 16.4384 12.1792 16.511 12.1908C16.5478 12.1968 16.5746 12.2041 16.5967 12.2141C16.6193 12.2242 16.6346 12.2361 16.6475 12.2461L16.6476 12.2462C16.8114 12.3745 16.8114 12.6373 16.6476 12.7656L16.6475 12.7657C16.6346 12.7758 16.6193 12.7876 16.5967 12.7977C16.5746 12.8077 16.5478 12.8151 16.511 12.821C16.4384 12.8326 16.3176 12.84 16.0974 12.8449C15.6557 12.8547 14.8019 12.8547 13.1043 12.8547H13.1024H9.68886Z" fill="currentColor" stroke="currentColor" stroke-width="0.1"/>
<path d="M16.5838 13.9883C16.5753 13.9926 16.5661 13.995 16.56 13.9963C16.5527 13.998 16.5442 13.9994 16.5349 14.0007C16.5164 14.0033 16.4923 14.0058 16.4634 14.008C16.4055 14.0126 16.3259 14.0168 16.2279 14.0207C16.0319 14.0284 15.7606 14.0348 15.4394 14.04C14.7969 14.0502 13.9535 14.0554 13.1102 14.0554C12.2669 14.0554 11.4235 14.0502 10.781 14.04C10.4598 14.0348 10.1885 14.0284 9.9925 14.0207C9.89455 14.0168 9.81489 14.0126 9.75701 14.008C9.72813 14.0058 9.70402 14.0033 9.68548 14.0007C9.67624 13.9994 9.66772 13.998 9.66037 13.9963C9.65413 13.9949 9.6447 13.9925 9.6361 13.988L9.6593 13.9437L9.63657 13.9883C9.42983 13.8827 9.39221 13.6226 9.55173 13.4541L9.62985 13.3685L9.64472 13.3522H9.66677H13.1065H16.5424H16.5625L16.577 13.3661L16.6626 13.4479C16.8337 13.6064 16.7936 13.8832 16.5838 13.9883ZM16.5838 13.9883C16.5837 13.9884 16.5836 13.9884 16.5835 13.9885L16.5611 13.9437L16.5843 13.988C16.5841 13.9881 16.5839 13.9882 16.5838 13.9883Z" fill="currentColor" stroke="currentColor" stroke-width="0.1"/>
<path d="M9.65009 14.5667L9.65005 14.5667C9.43069 14.6632 9.38189 14.9491 9.55749 15.112L9.6431 15.1938L9.6576 15.2077H9.67766H13.1136H16.5533H16.5754L16.5902 15.1914L16.6683 15.1059C16.6684 15.1058 16.6685 15.1057 16.6685 15.1057C16.8411 14.92 16.7772 14.6376 16.5401 14.5541L9.65009 14.5667ZM9.65009 14.5667C9.65807 14.5632 9.66683 14.5613 9.67275 14.5602M9.65009 14.5667L9.67275 14.5602M9.67275 14.5602C9.67974 14.5589 9.68791 14.5577 9.6969 14.5567M9.67275 14.5602L9.6969 14.5567M9.6969 14.5567C9.71495 14.5545 9.73855 14.5525 9.76696 14.5506M9.6969 14.5567L9.76696 14.5506M9.76696 14.5506C9.82391 14.5468 9.90241 14.5432 9.99911 14.5399M9.76696 14.5506L9.99911 14.5399M9.99911 14.5399C10.1926 14.5333 10.4606 14.5276 10.7781 14.5229M9.99911 14.5399L10.7781 14.5229M10.7781 14.5229C11.4132 14.5134 12.2474 14.5078 13.0827 14.5064M10.7781 14.5229L13.0827 14.5064M13.0827 14.5064C13.918 14.505 14.7546 14.5078 15.3944 14.5152M13.0827 14.5064L15.3944 14.5152M15.3944 14.5152C15.7142 14.5189 15.9851 14.5237 16.1821 14.5297M15.3944 14.5152L16.1821 14.5297M16.1821 14.5297C16.2805 14.5327 16.3609 14.536 16.4198 14.5396M16.1821 14.5297L16.4198 14.5396M16.4198 14.5396C16.4493 14.5415 16.4738 14.5434 16.4929 14.5455M16.4198 14.5396L16.4929 14.5455M16.4929 14.5455C16.5098 14.5473 16.5277 14.5497 16.54 14.5541L16.4929 14.5455Z" fill="currentColor" stroke="currentColor" stroke-width="0.1"/>
<path d="M9.64996 15.7151L9.64994 15.7151L9.65166 15.7142C9.6589 15.7106 9.66631 15.7088 9.67078 15.7078C9.6761 15.7066 9.68201 15.7056 9.68816 15.7047C9.70052 15.703 9.71639 15.7014 9.73545 15.7C9.77371 15.6971 9.82754 15.6945 9.8975 15.6922C10.0376 15.6876 10.2444 15.684 10.5251 15.6814C11.0865 15.6763 11.9449 15.6753 13.1587 15.6791L16.5722 15.6865L16.5963 15.6866L16.6113 15.7055L16.682 15.7948C16.682 15.7949 16.6821 15.7949 16.6821 15.795C16.7903 15.9294 16.7868 16.1363 16.6686 16.2634C16.6685 16.2635 16.6685 16.2635 16.6684 16.2636L16.5903 16.3491L16.5755 16.3654H16.5534H13.1137H9.67776H9.65769L9.6432 16.3516L9.55737 16.2695C9.38406 16.105 9.43377 15.8338 9.64996 15.7151Z" fill="currentColor" stroke="currentColor" stroke-width="0.1"/>
<path d="M10.4738 17.5231H10.4525L10.4378 17.5078L10.3485 17.4148C10.2803 17.3465 10.2421 17.2685 10.2451 17.1843C10.248 17.1007 10.2911 17.0212 10.3638 16.9485L10.4721 16.8402L10.4868 16.8256H10.5075H13.0882C13.992 16.8256 14.6431 16.8284 15.0763 16.8349C15.2928 16.8382 15.4553 16.8424 15.5679 16.8477C15.6241 16.8503 15.6684 16.8533 15.7011 16.8566C15.7174 16.8582 15.7315 16.86 15.7429 16.862C15.7528 16.8638 15.7649 16.8664 15.7752 16.8711C15.9898 16.9674 16.0429 17.2481 15.8724 17.415L15.7834 17.5078L15.7686 17.5231H15.7473H13.1106H10.4738Z" fill="currentColor" stroke="currentColor" stroke-width="0.1"/>
</svg>
