<svg width="30" height="32" viewBox="0 0 30 32" fill="none" stroke="currentColor" xmlns="http://www.w3.org/2000/svg">
<g filter="url(#filter0_d_15_2970)">
<path d="M11.9599 11.7587C11.8599 11.7487 11.7399 11.7487 11.6299 11.7587C9.24986 11.6787 7.35986 9.72867 7.35986 7.32867C7.35986 4.87867 9.33986 2.88867 11.7999 2.88867C14.2499 2.88867 16.2399 4.87867 16.2399 7.32867C16.2299 9.72867 14.3399 11.6787 11.9599 11.7587Z" stroke-width="1.5" stroke-linecap="round" stroke-linejoin="round"/>
<path d="M19.2096 4.88867C21.1496 4.88867 22.7096 6.45867 22.7096 8.38867C22.7096 10.2787 21.2096 11.8187 19.3396 11.8887C19.2596 11.8787 19.1696 11.8787 19.0796 11.8887" stroke-width="1.5" stroke-linecap="round" stroke-linejoin="round"/>
<path d="M6.96002 15.4487C4.54002 17.0687 4.54002 19.7087 6.96002 21.3187C9.71002 23.1587 14.22 23.1587 16.97 21.3187C19.39 19.6987 19.39 17.0587 16.97 15.4487C14.23 13.6187 9.72002 13.6187 6.96002 15.4487Z" stroke-width="1.5" stroke-linecap="round" stroke-linejoin="round"/>
<path d="M21.1396 20.8887C21.8596 20.7387 22.5396 20.4487 23.0996 20.0187C24.6596 18.8487 24.6596 16.9187 23.0996 15.7487C22.5496 15.3287 21.8796 15.0487 21.1696 14.8887" stroke-width="1.5" stroke-linecap="round" stroke-linejoin="round"/>
</g>
</svg>
