<svg width="27" height="27" viewBox="0 0 27 27" fill="none" xmlns="http://www.w3.org/2000/svg">
<path d="M26 5.97477C21.375 5.56224 16.7222 5.34973 12.0833 5.34973C9.33333 5.34973 6.58333 5.47474 3.83333 5.72475L1 5.97477" stroke="#FF1405" stroke-width="1.5" stroke-linecap="round" stroke-linejoin="round"/>
<path d="M8.6394 4.71258L8.94496 3.07499C9.16718 1.88743 9.33385 0.999878 11.6811 0.999878H15.32C17.6672 0.999878 17.8477 1.93743 18.0561 3.08749L18.3616 4.71258" stroke="#FF1405" stroke-width="1.5" stroke-linecap="round" stroke-linejoin="round"/>
<path d="M23.0134 9.92383L22.1106 22.512C21.9578 24.4746 21.8328 25.9997 17.9578 25.9997H9.04115C5.16615 25.9997 5.04115 24.4746 4.88837 22.512L3.9856 9.92383" stroke="#FF1405" stroke-width="1.5" stroke-linecap="round" stroke-linejoin="round"/>
<path d="M11.1802 19.1255H15.8052" stroke="#FF1405" stroke-width="1.5" stroke-linecap="round" stroke-linejoin="round"/>
<path d="M10.0278 14.1259H16.9723" stroke="#FF1405" stroke-width="1.5" stroke-linecap="round" stroke-linejoin="round"/>
</svg>
