<svg width="103" height="14" viewBox="0 0 103 14" fill="none" xmlns="http://www.w3.org/2000/svg">
<path d="M6.29922 0.0996094H2.69922V2.19961H6.29922V0.0996094Z" fill="#1B212D"/>
<path d="M10.7016 0.0996094H7.10156V2.19961H10.7016V0.0996094Z" fill="#1B212D"/>
<path d="M33.7 13.9H37.3V11.8H33.7V13.9ZM38.8 2.9H34.3V7.3C34.3 8.2 34 8.6 33.3 8.7H11.3V3H5.8C1.9 3 0 4.5 0 7.4C0 8.3 0.3 9.1 1 9.8C1.7 10.6 2.5 11 3.5 11H35C36 11 36.8 10.8 37.5 10.3C38.3 9.8 38.7 9 38.7 8V2.9H38.8ZM6.8 8.7H5.8C4.9 8.7 4.3 8.1 4.3 7.2C4.3 6.5 4.4 6 4.7 5.5C4.9 5.1 5.3 4.9 5.7 4.9C6.3 4.9 6.8 5.3 6.8 5.9V8.7ZM29.3 13.9H32.9V11.8H29.3V13.9ZM44.6 0.1H41V2.2H44.6V0.1ZM60.9 4.5H54.6C55.1 3 56.2 2.3 58 2.3H65.8V0.1H57.4C55.6 0.1 54 0.6 52.6 1.6C50.9 2.8 50 4.5 50 6.7H58.7C59.6 6.7 60 7.1 60 8V8.7H45.1V3H40.7V10.4C40.7 10.9 40.6 11.3 40.5 11.5C40.3 11.8 40 11.9 39.6 11.9C39.4 11.9 39.1 11.9 38.9 11.9V13.9H41C42.5 13.9 43.6 13.7 44.2 13.2C44.7 12.8 45 12.1 45 11H65.7V8.2C65.8 5.7 64.1 4.5 60.9 4.5ZM91.9 7.3C91.9 8.2 91.6 8.6 90.9 8.7H88.8C88.8 7.3 88.2 6.2 87.1 5.6C86.1 5 84.7 4.7 82.8 4.7C80.9 4.7 79.4 5 78.4 5.6C77.3 6.2 76.7 7.3 76.7 8.7H72V3H67.6V10.4C67.6 10.9 67.5 11.3 67.4 11.5C67.2 11.8 66.9 11.9 66.4 11.9H65.7V13.9C66.5 13.9 67.2 13.9 67.9 13.9C69.4 13.9 70.5 13.6 71.1 13.1C71.6 12.7 71.9 12 71.9 10.9H77.2C78 12.2 79.9 12.8 82.7 12.8C85.5 12.8 87.4 12.2 88.2 10.9H92.6C93.6 10.9 94.4 10.7 95.1 10.3C95.9 9.8 96.3 9 96.3 8V0H91.8V7.3H91.9ZM82.8 11C81.8 11 81.4 10.3 81.4 8.9C81.4 7.5 81.9 6.7 82.8 6.7C83.8 6.7 84.3 7.4 84.3 8.9C84.3 10.3 83.8 11 82.8 11ZM98.3 0.1V11H102.8V0.1H98.3Z" fill="#1B212D"/>
</svg>
